# xmcd
# 
# Track frame offsets:
#     150
#     39927
#     54675
#     74694
#     96468
#     120741
#     189477
#     208833
# 
# Disc length: 2968
# 
# Revision: 5
# Processed by: cddbd v1.5.2PL0 Copyright (c) Steve Scherf et al.
# Submitted via: fre:ac v1.0.31
# 
DISCID=7a0b9608
DTITLE=Blind Faith - Blind Faith
DYEAR=1969
DGENRE=Blues
TTITLE0=Had To Cry Today
TTITLE1=Can't Find My Way Home
TTITLE2=Well All Right
TTITLE3=Presence Of The Lord
TTITLE4=Sea Of Joy
TTITLE5=Do What You Like
TTITLE6=Exchange And Mart
TTITLE7=Spending All My Days
EXTD=
EXTT0=
EXTT1=
EXTT2=
EXTT3=
EXTT4=
EXTT5=
EXTT6=
EXTT7=
PLAYORDER=
